<?xml version="1.0" encoding="UTF-8"?>
<svg width="40px" height="40px" viewBox="0 0 40 40" version="1.1" xmlns="http://www.w3.org/2000/svg" xmlns:xlink="http://www.w3.org/1999/xlink">
    <!-- Generator: Sketch 3.8.1 (29687) - http://www.bohemiancoding.com/sketch -->
    <title>moon</title>
    <desc>Created with Sketch.</desc>
    <defs></defs>
    <g id="Page-1" stroke="none" stroke-width="1" fill="none" fill-rule="evenodd">
        <g id="moon">
            <path d="M21.0332479,4 C12.1954357,4 5,11.0359786 5,19.7142964 C5,28.3926179 12.1954357,35.4285821 21.0332479,35.4285821 C26.9527411,35.4285821 32.1349029,32.2636893 34.9116289,27.5714393 C35.0690854,27.2947607 35.0109907,26.9134036 34.7782896,26.6961179 C34.5455886,26.4788679 34.1609693,26.4469036 33.8955768,26.6227964 C31.870975,28.0261179 29.4020871,28.8549393 26.7275071,28.8549393 C19.85488,28.8549393 14.3117889,23.4187964 14.3117889,16.7120857 C14.3117889,11.5682286 17.5755686,7.17872857 22.1944304,5.40625 C22.5007679,5.29357143 22.7034925,4.95014286 22.6540439,4.62764286 C22.6045954,4.30510714 22.3082975,4.03814286 21.9822732,4.02232143 C21.6949075,4.00625 21.394715,4.00089286 21.1002393,4.00017857 C21.0777286,4.00007143 21.0556139,4.00017857 21.0332479,4.00017857 L21.0332479,4 Z" fill="#000000"></path>
            <rect id="Rectangle-1" x="0" y="0" width="40" height="40"></rect>
        </g>
    </g>
</svg>