<svg xmlns:dc="http://purl.org/dc/elements/1.1/" xmlns:cc="http://creativecommons.org/ns#" xmlns:rdf="http://www.w3.org/1999/02/22-rdf-syntax-ns#" xmlns:svg="http://www.w3.org/2000/svg" xmlns="http://www.w3.org/2000/svg" xmlns:sodipodi="http://sodipodi.sourceforge.net/DTD/sodipodi-0.dtd" xmlns:inkscape="http://www.inkscape.org/namespaces/inkscape" version="1.1" x="0px" y="0px" viewBox="0 0 100 125"><g transform="translate(0,-952.36218)"><path d="M 52.893094,958.36217 C 28.14722,958.36217 8,978.06291 8,1002.3622 c 0,24.2993 20.14722,44 44.893094,44 16.574581,0 31.084634,-8.8617 38.859467,-22 0.440878,-0.7747 0.278213,-1.8425 -0.37335,-2.4509 -0.651563,-0.6083 -1.728497,-0.6978 -2.471596,-0.2053 -5.668885,3.9293 -12.581771,6.25 -20.070595,6.25 -19.243356,0 -34.764011,-15.2212 -34.764011,-33.99999 0,-14.4028 9.138583,-26.6934 22.071396,-31.65634 0.857745,-0.3155 1.425374,-1.2771 1.286918,-2.1801 -0.138456,-0.9031 -0.96809,-1.6506 -1.880958,-1.6949 -0.804624,-0.045 -1.645163,-0.06 -2.469695,-0.062 -0.06303,-3e-4 -0.124951,0 -0.187576,0 z" style="text-indent:0;text-transform:none;direction:ltr;block-progression:tb;baseline-shift:baseline;color:#000000;enable-background:accumulate;" fill="#000000" fill-opacity="1" stroke="none" marker="none" visibility="visible" display="inline" overflow="visible"/></g><text x="0" y="115" fill="#000000" font-size="5px" font-weight="bold" font-family="'Helvetica Neue', Helvetica, Arial-Unicode, Arial, Sans-serif">Created by Nanda Ririz</text><text x="0" y="120" fill="#000000" font-size="5px" font-weight="bold" font-family="'Helvetica Neue', Helvetica, Arial-Unicode, Arial, Sans-serif">from the Noun Project</text></svg>