<svg xmlns="http://www.w3.org/2000/svg" viewBox="0 0 26.458333 33.0729175" x="0px" y="0px"><path
  d="m13.221146 272.12922c-.292047.005-.525198.24485-.520885.53693v3.78432c-.0098.71524 1.068044.71524 1.058333 0v-3.78432c.0045-.29857-.238918-.54162-.537448-.53693zm-5.5686055 1.48881c-.4014.0155-.639895.45499-.434076.79998l1.89238 3.27738c.345572.63697 1.2951875.0885.9161985-.52918l-1.8918495-3.27737c-.0971-.17392-.283634-.27856-.482653-.27081zm11.1372115 0c-.193225-.002-.371898.10255-.46609.27131l-1.892406 3.27737c-.356817.61229.565071 1.1444.916755.52918l1.891824-3.27737c.209603-.35111-.0412-.79716-.450083-.80049zm-15.1643285 4.06754c-.555202-.0204-.762768.71921-.278025.99065l3.277315 1.89244c.611134.35269 1.140301-.56405.529167-.91677l-3.277315-1.89192c-.07615-.0454-.162507-.071-.251142-.0744zm19.2446535 0c-.101256-.003-.201321.0225-.288343.0744l-3.277288 1.89192c-.606742.35396-.0808 1.26513.529167.91677l3.277288-1.89244c.467333-.26181.294534-.9726-.240824-.99065zm-9.780693.94982c-.828517.0209-1.66296.24228-2.429299.68473-2.4522105 1.41589-3.2967875 4.56798-1.8810015 7.02037 1.4157845 2.45237 4.5669195 3.29643 7.0191305 1.88054 2.452238-1.41587 3.296815-4.56748 1.881029-7.01985-.973349-1.68601-2.767092-2.61167-4.589859-2.56579zm-.397934 1.4387c.715619-.0102.715619 1.06894 0 1.05888-1.171019 0-2.109391.93781-2.109391 2.10896.01032.71573-1.0686515.71573-1.0583325 0 0-1.74316 1.4247545-3.16784 3.1677235-3.16784zm-10.5671935 3.16731c-.715671-.0102-.715671 1.06854 0 1.05835h3.78423c.715645.0102.715645-1.06854 0-1.05835zm18.4255835 0c-.715671-.0102-.715671 1.06854 0 1.05835h3.784256c.715645.0102.715645-1.06854 0-1.05835zm-13.6367835 3.65772c-.101256-.003-.201322.0225-.288343.0744l-3.277315 1.89191c-.611214.35277-.08207 1.26952.529167.91674l3.277315-1.89241c.467307-.26181.294507-.9726-.240824-.99067zm12.6694135 0c-.555201-.0204-.762767.71923-.278024.99067l3.277288 1.89241c.611188.35289 1.140354-.56386.529167-.91674l-3.277288-1.89191c-.07615-.0455-.162507-.0711-.251143-.0744zm-10.0050065 2.67639c-.193411-.002-.372348.10237-.466619.27131l-1.89238 3.27737c-.355018.61178.564568 1.14263.916729.52918l1.8918495-3.27738c.209497-.35095-.0409-.79678-.4495795-.80048zm7.2878685 0c-.401399.0155-.639868.45496-.434076.79995l1.892406 3.27738c.345361.63776 1.295956.0887.916173-.52918l-1.891824-3.27737c-.0971-.17389-.28366-.27853-.482679-.27078zm-3.644186.97927c-.29202.005-.525171.24487-.520885.53692v3.78436c-.0098.71523 1.068044.71523 1.058333 0v-3.78436c.0042-.29853-.238918-.54158-.537448-.53692z"
  fill-rule="evenodd"
  transform="translate(0 -270.54165)"/>
  <text x="0" y="41.458334" fill="#000000" font-size="5px" font-weight="bold" font-family="'Helvetica Neue', Helvetica, Arial-Unicode, Arial, Sans-serif">Created by Nanda Ririz</text>
  <text x="0" y="46.458334" fill="#000000" font-size="5px" font-weight="bold" font-family="'Helvetica Neue', Helvetica, Arial-Unicode, Arial, Sans-serif">from the Noun Project</text>
</svg>
