<?xml version="1.0" encoding="UTF-8"?>
<svg width="40px" height="40px" viewBox="0 0 40 40" version="1.1" xmlns="http://www.w3.org/2000/svg" xmlns:xlink="http://www.w3.org/1999/xlink">
    <!-- Generator: Sketch 3.8.1 (29687) - http://www.bohemiancoding.com/sketch -->
    <title>sun</title>
    <desc>Created with Sketch.</desc>
    <defs></defs>
    <g id="Page-1" stroke="none" stroke-width="1" fill="none" fill-rule="evenodd">
        <path d="M19.986221,0.000114681551 C19.4844938,0.00870451943 19.0839479,0.420759043 19.0913575,0.922543012 L19.0913575,7.42388207 C19.0745214,8.6526412 20.9262225,8.6526412 20.9095393,7.42388207 L20.9095393,0.922543012 C20.9172701,0.409609433 20.4990859,-0.00794258638 19.986221,0.000114681551 L19.986221,0.000114681551 Z M10.4195373,2.55784199 C9.72994516,2.58447049 9.32021848,3.33950006 9.67380885,3.93218169 L12.9248563,9.56261427 C13.5185378,10.6569081 15.1499465,9.7146544 14.4988557,8.65350018 L11.2487196,3.02308479 C11.0819049,2.72429587 10.7614455,2.54452774 10.4195373,2.55784199 L10.4195373,2.55784199 Z M29.5529056,2.55784199 C29.2209513,2.55440605 28.9139969,2.73401956 28.7521781,3.02394377 L25.5010859,8.65435917 C24.8880859,9.70625354 26.4718596,10.6204013 27.0760413,9.56347325 L30.3261336,3.93305785 C30.6862248,3.32986226 30.2553533,2.56356282 29.5529056,2.55784199 L29.5529056,2.55784199 Z M3.50108091,9.54574383 C2.54726188,9.51069729 2.19067022,10.7813233 3.02344298,11.2476484 L8.65376389,14.498799 C9.70367228,15.1047089 10.612764,13.5297794 9.56285563,12.9238178 L3.93253473,9.67356061 C3.8017115,9.59556488 3.65335297,9.55158491 3.50108091,9.54574383 L3.50108091,9.54574383 Z M36.5627716,9.54574383 C36.3888171,9.54058992 36.2169087,9.5843981 36.0674077,9.67356061 L30.4371332,12.9238178 C29.3947701,13.5319096 30.2983214,15.0972702 31.3462249,14.498799 L36.9764995,11.2476484 C37.7793624,10.7978673 37.4824993,9.57675314 36.5627716,9.54574383 L36.5627716,9.54574383 Z M19.7598582,11.1775038 C18.3364929,11.2134093 16.9029468,11.593733 15.5864013,12.3538477 C11.3735832,14.7863008 9.92262725,20.2014893 12.3549017,24.4146158 C14.7871736,28.6277079 20.2007213,30.0777756 24.4135403,27.6453225 C28.6264057,25.2129038 30.0773616,19.79854 27.6450871,15.5854478 C25.9729051,12.6889373 22.8913128,11.0986834 19.7598582,11.1775038 L19.7598582,11.1775038 Z M19.0762205,13.6491437 C20.3056307,13.6316205 20.3056307,15.485548 19.0762205,15.4682652 C17.0644478,15.4682652 15.4523551,17.0793924 15.4523551,19.0913901 C15.4700846,20.3209911 13.6164465,20.3209911 13.6341742,19.0913901 C13.6341742,16.0966978 16.0818563,13.6491437 19.0762205,13.6491437 L19.0762205,13.6491437 Z M0.92212468,19.0904796 C-0.307374893,19.0729564 -0.307374893,20.9261967 0.92212468,20.9086906 L7.42330912,20.9086906 C8.65276403,20.9262139 8.65276403,19.0729735 7.42330912,19.0904796 L0.92212468,19.0904796 Z M32.5766797,19.0904796 C31.3471801,19.0729564 31.3471801,20.9261967 32.5766797,20.9086906 L39.0779088,20.9086906 C40.3073637,20.9262139 40.3073637,19.0729735 39.0779088,19.0904796 L32.5766797,19.0904796 Z M9.14912781,25.374324 C8.97517329,25.3691701 8.80326314,25.4129783 8.65376389,25.5021408 L3.02344298,28.7523808 C1.97339714,29.3584282 2.88244938,30.933375 3.93253473,30.3273104 L9.56285563,27.0762114 C10.3656739,26.6264303 10.0688091,25.4053161 9.14912781,25.3742725 L9.14912781,25.374324 Z M30.9147694,25.374324 C29.9609521,25.3392775 29.6043604,26.6099378 30.4371332,27.0762629 L36.0674077,30.327362 C37.1174089,30.9336155 38.0264989,29.3586688 36.9764995,28.7524324 L31.3462249,25.5021923 C31.2154017,25.4240248 31.0670432,25.3800448 30.9147694,25.3743755 L30.9147694,25.374324 Z M13.7264926,29.9722752 C13.3942188,29.9688393 13.0868109,30.1481436 12.9248563,30.438377 L9.67380885,36.0687924 C9.06389944,37.1198106 10.6437184,38.0317937 11.2487196,36.9779065 L14.4988557,31.3474739 C14.8587647,30.7445532 14.4285908,29.9786317 13.7264926,29.9722752 L13.7264926,29.9722752 Z M26.2468144,29.9722752 C25.557224,29.9989037 25.147542,30.7538818 25.5010859,31.3465634 L28.7521781,36.976996 C29.3454971,38.072647 30.9785885,37.1293797 30.3261336,36.0678819 L27.0760413,30.4374665 C26.9092267,30.1387291 26.5887226,29.958961 26.2468144,29.9722752 L26.2468144,29.9722752 Z M19.986221,31.6546293 C19.4845401,31.6632192 19.0839943,32.0753081 19.0913575,32.5770405 L19.0913575,39.0784483 C19.0745214,40.3071902 20.9262225,40.3071902 20.9095393,39.0784483 L20.9095393,32.5770405 C20.9167547,32.0641756 20.4990859,31.6466236 19.986221,31.6546293 L19.986221,31.6546293 Z" id="sun" fill="#000000"></path>
    </g>
</svg>